<svg width="201" height="76" viewBox="0 0 201 76" fill="none" xmlns="http://www.w3.org/2000/svg">
<path d="M14.1431 45.7959L9.57126 38.6294L10.8241 33.7012L21.3988 26.7128L36.005 24.9197L52.5825 27.0691L60.5625 30.2041C60.5625 30.2041 66.5653 35.3994 66.6544 36.4741C66.7434 37.5487 65.0394 43.1953 64.9503 43.4625C64.8613 43.7297 63.6975 49.5544 60.2003 50.8072C56.7031 52.06 34.2178 55.29 33.8556 55.1059C33.4934 54.9219 14.1431 45.7959 14.1431 45.7959Z" fill="#2F2F2F"/>
<path d="M11.7266 43.5575C11.7266 43.5575 11.8631 42.0375 12.3797 40.5234C13.0684 38.4928 19.4334 29.6697 37.2637 29.6697C55.0941 29.6697 64.9503 38.4512 63.9647 42.8391C62.9791 47.2269 50.7062 58.2528 50.7062 58.2528C50.7062 58.2528 29.2006 54.9397 28.8444 54.8506C28.4822 54.7556 11.7266 43.5575 11.7266 43.5575Z" fill="#F7B03A"/>
<path d="M20.0213 38.3325C19.4988 38.4453 19.0416 38.7838 19.0891 39.3894C19.1306 39.995 19.6887 40.28 20.1875 40.1969C20.9653 40.0663 21.2444 39.5141 21.1434 38.9738C21.0425 38.4809 20.4963 38.2256 20.0213 38.3325Z" fill="#FFE36A"/>
<path d="M19.5225 41.1528C20.045 41.9781 19.2553 43.1241 17.676 43.6228C16.0966 44.1216 14.9981 43.8722 14.8141 42.7916C14.63 41.7109 16.0372 41.0281 16.7616 40.7787C17.486 40.5294 18.9822 40.3037 19.5225 41.1528Z" fill="#FFE36A"/>
<path d="M27.9834 35.1797C28.0191 35.9813 29.165 36.4266 30.7859 36.2188C32.4069 36.0109 33.2738 35.1203 33.1906 34.3128C33.1075 33.5053 31.9675 33.1906 30.6613 33.2738C29.355 33.3569 27.9419 34.1644 27.9834 35.1797Z" fill="#FFE36A"/>
<path d="M33.5469 33.0837C33.5469 33.8022 34.3959 34.0397 35.4944 33.9744C36.8006 33.9031 37.1569 33.3925 37.2163 32.9175C37.2756 32.4425 36.4919 31.6944 35.3875 31.7775C34.295 31.8606 33.5469 32.2941 33.5469 33.0837Z" fill="#FFE36A"/>
<path d="M44.4363 39.805C44.3531 40.7134 44.9766 41.7109 47.4228 41.5091C49.8691 41.3072 50.35 40.0781 50.35 39.6447C50.35 39.2112 49.9463 37.8931 47.6128 37.8575C46.2056 37.8337 44.5609 38.4334 44.4363 39.805Z" fill="#FFE36A"/>
<path d="M55.8303 39.2884C55.7828 39.7516 55.9312 40.9509 58.1341 40.8856C60.3309 40.8263 60.0637 40.0781 60.0637 39.7456C60.0637 39.4131 59.3156 38.19 57.76 38.0238C56.5191 37.8872 55.9134 38.5166 55.8303 39.2884Z" fill="#FFE36A"/>
<path d="M58.6506 42.5006C58.6091 43.0587 59.2503 43.4981 60.6219 43.415C61.7856 43.3437 62.2903 42.7322 62.2606 42.275C62.2191 41.61 61.5778 41.2775 60.5803 41.3191C59.7075 41.3547 58.716 41.7169 58.6506 42.5006Z" fill="#FFE36A"/>
<path d="M33.4638 48.0641C33.4875 48.5391 34.5028 49.1031 36.1416 49.1031C37.7803 49.1031 38.0891 48.4203 38.0891 47.9216C38.0891 47.4228 37.5725 46.8647 36.0584 46.7994C34.7047 46.74 33.4222 47.2566 33.4638 48.0641Z" fill="#FFE36A"/>
<path d="M16.4528 46.4253C16.5122 46.2828 16.5834 45.6594 16.8863 45.1369C17.1534 44.6797 17.6284 44.3056 18.1747 44.3056C19.1306 44.3056 21.2859 44.6797 21.7847 45.3625C22.1469 45.8613 22.1172 47.7078 20.6625 48.1828C19.2078 48.6638 16.4528 46.4253 16.4528 46.4253Z" fill="#D64C12"/>
<path d="M20.8881 36.8778C20.9178 37.2578 21.5294 38.0178 22.3428 37.9584C23.1503 37.899 25.4956 36.8184 25.7272 36.3375C25.9528 35.8625 25.0028 34.7819 24.3794 34.7819C23.7559 34.7819 20.8288 36.094 20.8881 36.8778Z" fill="#D64C12"/>
<path d="M44.7925 43.2725C44.5491 43.7653 44.2938 45.22 45.3506 45.6178C46.4075 46.0097 50.4984 46.1997 50.4984 45.0181C50.4984 43.8366 49.3347 42.9875 48.9013 42.9222C48.4619 42.8569 45.1666 42.5244 44.7925 43.2725Z" fill="#D64C12"/>
<path d="M49.5841 41.3428C48.9131 42.3819 50.1363 43.6169 51.0388 44.0384C52.9863 44.9528 53.9659 44.7984 54.6488 44.2878C55.8125 43.415 55.4147 42.5422 52.9269 41.3844C51.1516 40.5531 50.0413 40.6362 49.5841 41.3428Z" fill="#D64C12"/>
<path d="M38.6353 35.15C38.6175 36.2484 41.0756 37.3588 42.845 37.4122C44.6144 37.4656 45.0775 36.6344 45.2081 36.2425C45.3388 35.8506 44.7153 34.5028 44.0147 33.9269C43.3141 33.3509 41.5209 32.7572 40.7134 32.8641C39.9059 32.965 38.6591 33.7488 38.6353 35.15Z" fill="#7F594B"/>
<path d="M24.1834 40.9213C24.3022 41.6634 25.4362 42.1681 27.4312 42.2988C29.8478 42.4531 31.3797 41.3606 31.4331 40.8975C31.4865 40.4284 30.0794 39.235 27.6153 39.235C24.6228 39.2291 24.0825 40.2681 24.1834 40.9213Z" fill="#FE8D00"/>
<path d="M23.3284 45.3388C23.2513 46.6628 24.1834 47.2091 25.4837 47.1556C26.7841 47.1022 29.2244 45.885 29.7172 44.4778C30.0259 43.605 28.5712 42.0613 26.4397 42.1384C25.2106 42.1859 23.3938 44.1809 23.3284 45.3388Z" fill="#7F594B"/>
<path d="M46.1997 37.5131C46.7222 37.7981 48.6697 37.2519 50.2016 36.9431C51.7334 36.6344 53.295 36.4741 53.5265 35.9813C53.7581 35.4884 53.3425 33.4103 51.0565 33.2263C48.7706 33.0422 47.4703 33.9031 46.924 34.4969C46.3778 35.0966 46.0156 35.8209 45.9859 36.0288C45.9622 36.2425 45.8375 37.3172 46.1997 37.5131Z" fill="#FE8D00"/>
<path d="M55.5037 41.414C56.2459 41.2834 55.765 39.0509 55.1653 38.374C54.5656 37.6972 52.8794 37.3884 51.8106 37.519C50.7478 37.6497 50.0175 37.9347 49.9641 38.5344C49.9106 39.1341 51.8106 40.1434 52.7962 40.5887C53.7878 41.0222 55.0584 41.4912 55.5037 41.414Z" fill="#FE8D00"/>
<path d="M29.9844 43.0944C30.5959 43.3081 32.0209 42.8925 32.0388 41.99C32.0566 41.0875 31.2431 40.2444 30.4416 40.4284C30.0378 40.5175 29.1947 41.5684 29.2125 41.9722C29.2303 42.3819 29.6697 42.9875 29.9844 43.0944Z" fill="#92A51E"/>
<path d="M32.9769 37.6794C33.0303 38.3978 34.6275 39.1459 35.1797 38.6709C35.7022 38.2197 35.3994 36.3019 34.7225 36.3019C33.8794 36.3019 32.9531 37.3825 32.9769 37.6794Z" fill="#92A51E"/>
<path d="M34.485 41.1291C34.4969 41.3844 34.8709 42.56 35.7913 42.5422C36.7116 42.5244 37.9584 41.5862 37.9584 41.1112C37.9584 40.6362 36.5097 39.1103 35.8269 39.1281C35.3638 39.14 34.4672 40.6362 34.485 41.1291Z" fill="#92A51E"/>
<path d="M37.5131 37.7328C37.4062 38.3681 37.8812 38.4334 38.3028 38.5047C38.7244 38.5759 39.2587 38.7066 39.8109 39.425C40.3631 40.1434 40.9034 41.6338 40.9687 41.7941C41.1706 42.3106 42.0909 42.5838 42.75 41.9425C43.4091 41.3013 42.1087 38.475 40.9509 37.5725C39.7872 36.67 37.715 36.5572 37.5131 37.7328Z" fill="#FBE0BC"/>
<path d="M37.2163 39.2409C37.3053 39.8287 38.6472 40.9094 39.5853 40.4344C40.5234 39.9594 39.5141 38.2078 39.1044 38.0178C38.8491 37.8931 37.0856 38.3859 37.2163 39.2409Z" fill="#92A51E"/>
<path d="M42.6728 37.7922C42.2512 37.7744 41.9009 37.9228 41.9187 38.6353C41.9366 39.3537 42.2097 40.1612 43.1478 40.2147C44.0859 40.2681 44.175 39.039 44.175 38.8906C44.175 38.7422 43.605 37.8278 42.6728 37.7922Z" fill="#92A51E"/>
<path d="M42.946 41.6813C42.5956 41.5981 40.9094 42.3225 40.8738 43.0053C40.8381 43.6822 41.4616 44.1988 42.5244 44.3294C43.5872 44.46 44.3056 44.46 44.4541 43.9434C44.5966 43.4269 43.991 41.9366 42.946 41.6813Z" fill="#92A51E"/>
<path d="M50.5994 47.8622C50.6647 48.26 52.0659 48.8834 52.5172 48.7587C52.9625 48.6341 54.0609 46.3422 55.7056 45.8731C57.3503 45.3981 57.8966 45.6 58.1222 45.3506C58.3478 45.1012 58.0213 43.9553 57.475 43.7594C56.9288 43.5634 55.4563 43.2844 53.6156 44.3591C51.7275 45.4516 50.5222 47.4169 50.5994 47.8622Z" fill="#FBE0AF"/>
<path d="M33.054 42.2097C32.2465 42.2572 31.16 43.4566 30.6909 44.5491C29.9725 46.2056 29.7469 47.5831 29.9428 47.9334C30.1447 48.2838 31.5756 48.7706 32.1575 48.3788C32.3059 48.2778 32.4544 46.4372 33.1787 45.0419C33.6715 44.0978 34.4969 43.7238 34.6453 43.5753C34.7937 43.4269 34.3722 42.1384 33.054 42.2097Z" fill="#FBE0AF"/>
<path d="M26.1072 33.8022C25.8875 34.01 25.2878 34.9719 25.4838 36.6641C25.6381 37.9525 25.8163 38.7363 26.2319 38.9263C26.5525 39.0747 28.8444 39.3003 29.0463 38.7006C29.2481 38.1009 27.8291 36.4384 27.6747 36.1356C27.5203 35.8328 27.4491 34.0931 27.4253 33.8734C27.4016 33.6478 26.4575 33.4756 26.1072 33.8022Z" fill="#FBE0AF"/>
<path d="M72.8353 33.6122C71.7606 31.4628 70.5969 30.6553 69.6113 30.6553C68.6256 30.6553 65.2234 32.2703 65.2234 32.2703C65.2234 32.2703 57.5938 24.0766 38.2434 23.7975C19.5166 23.5244 11.5544 31.2728 11.5544 31.2728C11.5544 31.2728 8.85876 29.2184 6.25813 29.4856C3.66345 29.7587 1.42501 36.5691 2.58876 38.5403C3.75251 40.5116 5.45657 40.4225 6.79845 41.1409C8.14032 41.8594 9.39907 42.6669 9.66626 43.1122C9.93345 43.5575 10.7409 53.5087 13.2525 57.9856C15.7641 62.4684 20.5081 68.4712 37.8931 68.8275C55.2781 69.1837 59.9688 62.1656 62.0825 58.1637C64.5941 53.4137 65.7578 44.6322 65.7578 44.6322C65.7578 44.6322 67.5509 43.0172 69.5222 42.2156C71.7013 41.325 72.6572 41.1409 73.2866 40.2444C73.91 39.3419 73.91 35.7616 72.8353 33.6122ZM38.5166 50.3678C19.7897 50.1837 10.735 44.27 11.0081 37.5547C11.1863 33.1669 19.9678 25.9053 37.1747 26.0834C54.5656 26.2675 65.4016 32.5375 65.3125 38.3562C65.2175 44.1809 56.8872 50.5459 38.5166 50.3678Z" fill="#6A6E70"/>
<path opacity="0.6" d="M37.8278 33.9922C39.7219 33.7903 38.8609 30.6019 40.4166 27.5263C43.9731 20.4785 50.9616 19.766 50.7656 13.7513C50.5519 7.17253 40.3512 3.97815 37.2459 6.50159C36.2484 7.31503 41.9662 8.24722 41.0637 11.9997C40.1553 15.7522 33.2381 16.0075 31.5578 22.0222C29.5569 29.1591 36.5987 34.1169 37.8278 33.9922Z" fill="#EAEAEA"/>
<path d="M103.8 63.52C96.664 64.16 90.744 64.48 86.04 64.48C82.904 64.48 80.6 63.744 79.128 62.272C77.656 60.8 76.92 58.496 76.92 55.36V40C76.92 36.64 77.672 34.208 79.176 32.704C80.712 31.168 83.16 30.4 86.52 30.4H103.8V37.12H88.44C86.52 37.12 85.56 38.08 85.56 40V55.36C85.56 56.096 85.768 56.688 86.184 57.136C86.632 57.552 87.192 57.76 87.864 57.76C88.536 57.76 89.272 57.76 90.072 57.76C90.872 57.728 91.704 57.696 92.568 57.664C93.432 57.632 94.296 57.6 95.16 57.568C96.056 57.536 97.192 57.472 98.568 57.376C99.976 57.28 101.72 57.168 103.8 57.04V63.52ZM118.926 60.4C118.926 61.6 118.582 62.544 117.894 63.232C117.222 63.904 116.286 64.24 115.086 64.24H109.566C108.366 64.24 107.422 63.904 106.734 63.232C106.062 62.544 105.726 61.6 105.726 60.4V54.88C105.726 53.68 106.062 52.744 106.734 52.072C107.422 51.384 108.366 51.04 109.566 51.04H115.086C116.286 51.04 117.222 51.384 117.894 52.072C118.582 52.744 118.926 53.68 118.926 54.88V60.4ZM114.726 55.24C114.726 54.6 114.406 54.28 113.766 54.28H110.886C110.246 54.28 109.926 54.6 109.926 55.24V60.04C109.926 60.68 110.246 61 110.886 61H113.766C114.406 61 114.726 60.68 114.726 60.04V55.24ZM129.603 51.04C130.899 51.04 131.899 51.52 132.603 52.48C133.339 51.984 134.131 51.624 134.979 51.4C135.843 51.16 136.611 51.04 137.283 51.04H137.523C138.611 51.04 139.483 51.368 140.139 52.024C140.795 52.68 141.123 53.552 141.123 54.64V64H136.923V55.36C136.923 55.12 136.843 54.92 136.683 54.76C136.523 54.6 136.323 54.52 136.083 54.52H135.963C135.243 54.52 134.323 54.68 133.203 55V64H129.003V55.36C129.003 55.12 128.923 54.92 128.763 54.76C128.603 54.6 128.403 54.52 128.163 54.52H128.043C127.323 54.52 126.403 54.68 125.283 55V64H121.083V51.28H124.803L125.043 52.48C125.795 51.984 126.563 51.624 127.347 51.4C128.147 51.16 128.819 51.04 129.363 51.04H129.603ZM150.358 54.52C149.51 54.52 148.55 54.68 147.478 55V60.76H151.078C151.718 60.76 152.038 60.44 152.038 59.8V55.36C152.038 55.12 151.958 54.92 151.798 54.76C151.638 54.6 151.438 54.52 151.198 54.52H150.358ZM147.478 64V68.08H143.278V51.28H146.998L147.238 52.48C147.99 51.984 148.758 51.624 149.542 51.4C150.342 51.16 151.014 51.04 151.558 51.04H152.638C153.726 51.04 154.598 51.368 155.254 52.024C155.91 52.68 156.238 53.552 156.238 54.64V60.16C156.238 61.36 155.894 62.304 155.206 62.992C154.534 63.664 153.598 64 152.398 64H147.478ZM163.435 60.88C164.283 60.88 165.243 60.72 166.315 60.4V58.96H162.835C162.595 58.96 162.395 59.04 162.235 59.2C162.075 59.36 161.995 59.56 161.995 59.8V60.04C161.995 60.28 162.075 60.48 162.235 60.64C162.395 60.8 162.595 60.88 162.835 60.88H163.435ZM158.995 51.52C161.923 51.2 164.563 51.04 166.915 51.04C168.003 51.04 168.875 51.368 169.531 52.024C170.187 52.68 170.515 53.552 170.515 54.64V64H166.795L166.555 62.8C165.803 63.296 165.027 63.664 164.227 63.904C163.443 64.128 162.779 64.24 162.235 64.24H161.395C160.307 64.24 159.435 63.912 158.779 63.256C158.123 62.6 157.795 61.728 157.795 60.64V59.56C157.795 58.472 158.123 57.6 158.779 56.944C159.435 56.288 160.307 55.96 161.395 55.96H166.315V55C166.315 54.76 166.235 54.56 166.075 54.4C165.915 54.24 165.715 54.16 165.475 54.16C164.435 54.16 163.283 54.208 162.019 54.304C160.771 54.4 159.763 54.472 158.995 54.52V51.52ZM179.749 54.52C178.901 54.52 177.941 54.68 176.869 55V64H172.669V51.28H176.389L176.629 52.48C177.381 51.984 178.149 51.624 178.933 51.4C179.733 51.16 180.405 51.04 180.949 51.04H182.029C183.117 51.04 183.989 51.368 184.645 52.024C185.301 52.68 185.629 53.552 185.629 54.64V64H181.429V55.36C181.429 55.12 181.349 54.92 181.189 54.76C181.029 54.6 180.829 54.52 180.589 54.52H179.749ZM191.146 68.32C190.298 68.32 189.258 68.24 188.026 68.08V64.96H190.186C190.794 64.96 191.186 64.792 191.362 64.456C191.554 64.12 191.522 63.648 191.266 63.04L186.346 51.28H190.786L193.786 59.44L196.306 51.28H200.746L195.946 64.48C195.482 65.744 194.882 66.696 194.146 67.336C193.41 67.992 192.41 68.32 191.146 68.32Z" fill="#149F39"/>
</svg>
